<mxfile host="app.diagrams.net" modified="2023-04-28T09:13:16.740Z" agent="Mozilla/5.0 (Windows NT 10.0; Win64; x64) AppleWebKit/537.36 (KHTML, like Gecko) Chrome/112.0.0.0 Safari/537.36" etag="szBzS2qpJvwLrfXXk8Wr" version="21.2.3" type="device">
  <diagram name="Page-1" id="QlAS6P0ZarEfJbWY2PkY">
    <mxGraphModel dx="1434" dy="804" grid="1" gridSize="10" guides="1" tooltips="1" connect="1" arrows="1" fold="1" page="1" pageScale="1" pageWidth="827" pageHeight="1169" math="0" shadow="0">
      <root>
        <mxCell id="0" />
        <mxCell id="1" parent="0" />
        <mxCell id="psEK_-1R5tJC7iqlsom0-31" value="" style="group" connectable="0" vertex="1" parent="1">
          <mxGeometry x="1070" y="230" width="80" height="360" as="geometry" />
        </mxCell>
        <mxCell id="psEK_-1R5tJC7iqlsom0-30" value="User devices" style="fillColor=#EFF0F3;strokeColor=none;dashed=0;verticalAlign=top;fontStyle=0;fontColor=#232F3D;whiteSpace=wrap;html=1;" vertex="1" parent="psEK_-1R5tJC7iqlsom0-31">
          <mxGeometry width="80" height="360" as="geometry" />
        </mxCell>
        <mxCell id="psEK_-1R5tJC7iqlsom0-21" value="" style="sketch=0;outlineConnect=0;fontColor=#232F3E;gradientColor=none;fillColor=#232F3D;strokeColor=none;dashed=0;verticalLabelPosition=bottom;verticalAlign=top;align=center;html=1;fontSize=12;fontStyle=0;aspect=fixed;pointerEvents=1;shape=mxgraph.aws4.mobile_client;points=[[0,0.25,0,0,0],[0,0.5,0,0,0],[0,0.75,0,0,0],[1,0.25,0,0,0],[1,0.5,0,0,0],[1,0.75,0,0,0]];" vertex="1" parent="psEK_-1R5tJC7iqlsom0-31">
          <mxGeometry x="19.5" y="52.758620689655174" width="41" height="78" as="geometry" />
        </mxCell>
        <mxCell id="5C-Kek0EPDYLzvU-S9g6-33" value="" style="sketch=0;outlineConnect=0;fontColor=#232F3E;gradientColor=none;fillColor=#232F3D;strokeColor=none;dashed=0;verticalLabelPosition=bottom;verticalAlign=top;align=center;html=1;fontSize=12;fontStyle=0;aspect=fixed;pointerEvents=1;shape=mxgraph.aws4.mobile_client;points=[[0,0.25,0,0,0],[0,0.5,0,0,0],[0,0.75,0,0,0],[1,0.25,0,0,0],[1,0.5,0,0,0],[1,0.75,0,0,0]];" vertex="1" parent="psEK_-1R5tJC7iqlsom0-31">
          <mxGeometry x="19.5" y="150" width="41" height="78" as="geometry" />
        </mxCell>
        <mxCell id="5C-Kek0EPDYLzvU-S9g6-34" value="" style="sketch=0;outlineConnect=0;fontColor=#232F3E;gradientColor=none;fillColor=#232F3D;strokeColor=none;dashed=0;verticalLabelPosition=bottom;verticalAlign=top;align=center;html=1;fontSize=12;fontStyle=0;aspect=fixed;pointerEvents=1;shape=mxgraph.aws4.mobile_client;points=[[0,0.25,0,0,0],[0,0.5,0,0,0],[0,0.75,0,0,0],[1,0.25,0,0,0],[1,0.5,0,0,0],[1,0.75,0,0,0]];" vertex="1" parent="psEK_-1R5tJC7iqlsom0-31">
          <mxGeometry x="19.5" y="247.99862068965518" width="41" height="78" as="geometry" />
        </mxCell>
        <mxCell id="odi_V6lT9OdnU7UhY-RL-20" value="API Gateway" style="points=[[0,0],[0.25,0],[0.5,0],[0.75,0],[1,0],[1,0.25],[1,0.5],[1,0.75],[1,1],[0.75,1],[0.5,1],[0.25,1],[0,1],[0,0.75],[0,0.5],[0,0.25]];outlineConnect=0;gradientColor=none;html=1;whiteSpace=wrap;fontSize=12;fontStyle=0;container=1;pointerEvents=0;collapsible=0;recursiveResize=0;shape=mxgraph.aws4.group;grIcon=mxgraph.aws4.group_aws_cloud_alt;strokeColor=#8552e2;fillColor=none;verticalAlign=top;align=left;spacingLeft=30;fontColor=#232F3E;dashed=0;" parent="1" vertex="1">
          <mxGeometry x="330" y="290" width="130" height="130" as="geometry" />
        </mxCell>
        <mxCell id="odi_V6lT9OdnU7UhY-RL-3" value="" style="sketch=0;points=[[0,0,0],[0.25,0,0],[0.5,0,0],[0.75,0,0],[1,0,0],[0,1,0],[0.25,1,0],[0.5,1,0],[0.75,1,0],[1,1,0],[0,0.25,0],[0,0.5,0],[0,0.75,0],[1,0.25,0],[1,0.5,0],[1,0.75,0]];outlineConnect=0;fontColor=#232F3E;gradientColor=#945DF2;gradientDirection=north;fillColor=#5A30B5;strokeColor=#ffffff;dashed=0;verticalLabelPosition=bottom;verticalAlign=top;align=center;html=1;fontSize=12;fontStyle=0;aspect=fixed;shape=mxgraph.aws4.resourceIcon;resIcon=mxgraph.aws4.api_gateway;" parent="odi_V6lT9OdnU7UhY-RL-20" vertex="1">
          <mxGeometry width="25" height="25" as="geometry" />
        </mxCell>
        <mxCell id="odi_V6lT9OdnU7UhY-RL-26" value="HTTP endpoint" style="sketch=0;outlineConnect=0;fontColor=#232F3E;gradientColor=none;fillColor=#4D27AA;strokeColor=none;dashed=0;verticalLabelPosition=bottom;verticalAlign=top;align=center;html=1;fontSize=12;fontStyle=0;aspect=fixed;pointerEvents=1;shape=mxgraph.aws4.endpoint;movable=1;resizable=1;rotatable=1;deletable=1;editable=1;locked=0;connectable=1;container=0;" parent="odi_V6lT9OdnU7UhY-RL-20" vertex="1">
          <mxGeometry x="45" y="50" width="40" height="40" as="geometry" />
        </mxCell>
        <mxCell id="glznaEs4rfP4Ca6hVpfA-1" value="High-level back-end component architecture of home-alarm-notifier.&lt;br&gt;&lt;br&gt;Diagram represents architecture as it was in commit&lt;br style=&quot;border-color: var(--border-color);&quot;&gt;b4e41a8acedfecd0a2f8856bd25441cb07faad83" style="rounded=0;whiteSpace=wrap;html=1;align=left;spacing=3;spacingLeft=10;spacingBottom=10;spacingRight=10;spacingTop=10;" parent="1" vertex="1">
          <mxGeometry x="80" y="180" width="390" height="80" as="geometry" />
        </mxCell>
        <mxCell id="glznaEs4rfP4Ca6hVpfA-4" value="Notes:&lt;br&gt;- Supporting resources (e.g. roles, policies, log groups) are omitted for clarity.&lt;br&gt;- Arrows indicate direction of the &lt;i&gt;request&lt;/i&gt;; &lt;i&gt;data&lt;/i&gt; is likely to flow bi-directionally." style="rounded=0;whiteSpace=wrap;html=1;align=left;spacing=3;spacingLeft=10;spacingBottom=10;spacingRight=10;spacingTop=10;" parent="1" vertex="1">
          <mxGeometry x="80" y="590" width="502" height="60" as="geometry" />
        </mxCell>
        <mxCell id="5C-Kek0EPDYLzvU-S9g6-9" value="IOT" style="points=[[0,0],[0.25,0],[0.5,0],[0.75,0],[1,0],[1,0.25],[1,0.5],[1,0.75],[1,1],[0.75,1],[0.5,1],[0.25,1],[0,1],[0,0.75],[0,0.5],[0,0.25]];outlineConnect=0;gradientColor=none;html=1;whiteSpace=wrap;fontSize=12;fontStyle=0;container=1;pointerEvents=0;collapsible=0;recursiveResize=0;shape=mxgraph.aws4.group;grIcon=mxgraph.aws4.group_aws_cloud_alt;strokeColor=#569a31;fillColor=none;verticalAlign=top;align=left;spacingLeft=30;fontColor=#232F3E;dashed=0;" vertex="1" parent="1">
          <mxGeometry x="680" y="290" width="120" height="280" as="geometry" />
        </mxCell>
        <mxCell id="5C-Kek0EPDYLzvU-S9g6-5" value="" style="sketch=0;points=[[0,0,0],[0.25,0,0],[0.5,0,0],[0.75,0,0],[1,0,0],[0,1,0],[0.25,1,0],[0.5,1,0],[0.75,1,0],[1,1,0],[0,0.25,0],[0,0.5,0],[0,0.75,0],[1,0.25,0],[1,0.5,0],[1,0.75,0]];outlineConnect=0;fontColor=#232F3E;gradientColor=#60A337;gradientDirection=north;fillColor=#277116;strokeColor=#ffffff;dashed=0;verticalLabelPosition=bottom;verticalAlign=top;align=center;html=1;fontSize=12;fontStyle=0;aspect=fixed;shape=mxgraph.aws4.resourceIcon;resIcon=mxgraph.aws4.internet_of_things;" vertex="1" parent="5C-Kek0EPDYLzvU-S9g6-9">
          <mxGeometry width="25" height="25" as="geometry" />
        </mxCell>
        <mxCell id="5C-Kek0EPDYLzvU-S9g6-1" value="Topic&lt;br&gt;(trigger)" style="sketch=0;outlineConnect=0;fontColor=#232F3E;gradientColor=none;fillColor=#3F8624;strokeColor=none;dashed=0;verticalLabelPosition=bottom;verticalAlign=top;align=center;html=1;fontSize=12;fontStyle=0;aspect=fixed;pointerEvents=1;shape=mxgraph.aws4.topic_2;container=0;" vertex="1" parent="5C-Kek0EPDYLzvU-S9g6-9">
          <mxGeometry x="46.06999999999987" y="49" width="27.86" height="41" as="geometry" />
        </mxCell>
        <mxCell id="5C-Kek0EPDYLzvU-S9g6-2" value="Topic&lt;br&gt;(response)" style="sketch=0;outlineConnect=0;fontColor=#232F3E;gradientColor=none;fillColor=#3F8624;strokeColor=none;dashed=0;verticalLabelPosition=bottom;verticalAlign=top;align=center;html=1;fontSize=12;fontStyle=0;aspect=fixed;pointerEvents=1;shape=mxgraph.aws4.topic_2;container=0;points=[[1,0.5,0,0,0]];" vertex="1" parent="5C-Kek0EPDYLzvU-S9g6-9">
          <mxGeometry x="46.069999999999936" y="179.5" width="27.86" height="41" as="geometry" />
        </mxCell>
        <mxCell id="5C-Kek0EPDYLzvU-S9g6-22" value="Edge compute" style="points=[[0,0],[0.25,0],[0.5,0],[0.75,0],[1,0],[1,0.25],[1,0.5],[1,0.75],[1,1],[0.75,1],[0.5,1],[0.25,1],[0,1],[0,0.75],[0,0.5],[0,0.25]];outlineConnect=0;gradientColor=none;html=1;whiteSpace=wrap;fontSize=12;fontStyle=0;container=1;pointerEvents=0;collapsible=0;recursiveResize=0;shape=mxgraph.aws4.group;grIcon=mxgraph.aws4.group_on_premise;strokeColor=#5A6C86;fillColor=none;verticalAlign=top;align=left;spacingLeft=30;fontColor=#5A6C86;dashed=0;" vertex="1" parent="1">
          <mxGeometry x="830" y="291" width="150" height="279" as="geometry" />
        </mxCell>
        <mxCell id="5C-Kek0EPDYLzvU-S9g6-16" value="Docker&amp;nbsp;&lt;br&gt;container&amp;nbsp;" style="shape=image;html=1;verticalAlign=middle;verticalLabelPosition=middle;labelBackgroundColor=#ffffff;imageAspect=0;aspect=fixed;image=https://cdn1.iconfinder.com/data/icons/social-media-2106/24/social_media_social_media_logo_docker-128.png;labelPosition=left;align=right;imageBorder=default;points=[[0,0,0,0,0],[0,0.25,0,0,0],[0,0.5,0,0,0],[0,0.75,0,0,0],[0,1,0,0,0],[0.25,0,0,0,0],[0.25,1,0,0,0],[0.5,0,0,0,0],[0.5,1,0,0,0],[0.75,0,0,0,0],[0.75,1,0,0,0],[1,0,0,0,0],[1,0.25,0,0,0],[1,0.5,0,0,0],[1,0.75,0,0,0],[1,1,0,0,0]];" vertex="1" parent="5C-Kek0EPDYLzvU-S9g6-22">
          <mxGeometry x="85" y="117.21000000000001" width="40" height="40" as="geometry" />
        </mxCell>
        <mxCell id="5C-Kek0EPDYLzvU-S9g6-25" value="IFTTT" style="ellipse;shape=cloud;whiteSpace=wrap;html=1;" vertex="1" parent="1">
          <mxGeometry x="350" y="460" width="90" height="60" as="geometry" />
        </mxCell>
        <mxCell id="5C-Kek0EPDYLzvU-S9g6-26" value="" style="group;strokeColor=#ed8208;" vertex="1" connectable="0" parent="1">
          <mxGeometry x="490" y="290" width="160" height="280" as="geometry" />
        </mxCell>
        <mxCell id="odi_V6lT9OdnU7UhY-RL-21" value="Lambda" style="points=[[0,0],[0.25,0],[0.5,0],[0.75,0],[1,0],[1,0.25],[1,0.5],[1,0.75],[1,1],[0.75,1],[0.5,1],[0.25,1],[0,1],[0,0.75],[0,0.5],[0,0.25]];outlineConnect=0;gradientColor=none;html=1;whiteSpace=wrap;fontSize=12;fontStyle=0;container=0;pointerEvents=0;collapsible=0;recursiveResize=0;shape=mxgraph.aws4.group;grIcon=mxgraph.aws4.group_aws_cloud_alt;strokeColor=#f28806;fillColor=none;verticalAlign=top;align=left;spacingLeft=30;fontColor=#232F3E;dashed=0;" parent="5C-Kek0EPDYLzvU-S9g6-26" vertex="1">
          <mxGeometry width="160" height="280" as="geometry" />
        </mxCell>
        <mxCell id="odi_V6lT9OdnU7UhY-RL-7" value="" style="sketch=0;points=[[0,0,0],[0.25,0,0],[0.5,0,0],[0.75,0,0],[1,0,0],[0,1,0],[0.25,1,0],[0.5,1,0],[0.75,1,0],[1,1,0],[0,0.25,0],[0,0.5,0],[0,0.75,0],[1,0.25,0],[1,0.5,0],[1,0.75,0]];outlineConnect=0;fontColor=#232F3E;gradientColor=#F78E04;gradientDirection=north;fillColor=#D05C17;strokeColor=#ffffff;dashed=0;verticalLabelPosition=bottom;verticalAlign=top;align=center;html=1;fontSize=12;fontStyle=0;aspect=fixed;shape=mxgraph.aws4.resourceIcon;resIcon=mxgraph.aws4.lambda;container=0;" parent="5C-Kek0EPDYLzvU-S9g6-26" vertex="1">
          <mxGeometry width="25" height="25" as="geometry" />
        </mxCell>
        <mxCell id="odi_V6lT9OdnU7UhY-RL-24" value="REST handler" style="sketch=0;outlineConnect=0;fontColor=#232F3E;gradientColor=none;fillColor=#D45B07;strokeColor=none;dashed=0;verticalLabelPosition=bottom;verticalAlign=top;align=center;html=1;fontSize=12;fontStyle=0;aspect=fixed;pointerEvents=1;shape=mxgraph.aws4.lambda_function;container=0;" parent="5C-Kek0EPDYLzvU-S9g6-26" vertex="1">
          <mxGeometry x="59.99999999999994" y="50" width="40" height="40" as="geometry" />
        </mxCell>
        <mxCell id="odi_V6lT9OdnU7UhY-RL-25" value="Response handler" style="sketch=0;outlineConnect=0;fontColor=#232F3E;gradientColor=none;fillColor=#D45B07;strokeColor=none;dashed=0;verticalLabelPosition=bottom;verticalAlign=top;align=center;html=1;fontSize=12;fontStyle=0;aspect=fixed;pointerEvents=1;shape=mxgraph.aws4.lambda_function;" parent="5C-Kek0EPDYLzvU-S9g6-26" vertex="1">
          <mxGeometry x="60" y="180" width="40" height="40" as="geometry" />
        </mxCell>
        <mxCell id="odi_V6lT9OdnU7UhY-RL-30" style="edgeStyle=orthogonalEdgeStyle;rounded=0;orthogonalLoop=1;jettySize=auto;html=1;" parent="1" source="odi_V6lT9OdnU7UhY-RL-26" target="odi_V6lT9OdnU7UhY-RL-24" edge="1">
          <mxGeometry relative="1" as="geometry" />
        </mxCell>
        <mxCell id="5C-Kek0EPDYLzvU-S9g6-15" style="edgeStyle=orthogonalEdgeStyle;rounded=0;orthogonalLoop=1;jettySize=auto;html=1;" edge="1" parent="1" source="odi_V6lT9OdnU7UhY-RL-24" target="5C-Kek0EPDYLzvU-S9g6-1">
          <mxGeometry relative="1" as="geometry" />
        </mxCell>
        <mxCell id="5C-Kek0EPDYLzvU-S9g6-27" style="edgeStyle=orthogonalEdgeStyle;rounded=0;orthogonalLoop=1;jettySize=auto;html=1;" edge="1" parent="1" source="5C-Kek0EPDYLzvU-S9g6-2" target="odi_V6lT9OdnU7UhY-RL-25">
          <mxGeometry relative="1" as="geometry" />
        </mxCell>
        <mxCell id="5C-Kek0EPDYLzvU-S9g6-28" style="edgeStyle=orthogonalEdgeStyle;rounded=0;orthogonalLoop=1;jettySize=auto;html=1;entryX=0.5;entryY=0;entryDx=0;entryDy=0;entryPerimeter=0;" edge="1" parent="1" source="5C-Kek0EPDYLzvU-S9g6-1" target="5C-Kek0EPDYLzvU-S9g6-16">
          <mxGeometry relative="1" as="geometry">
            <mxPoint x="895" y="380" as="targetPoint" />
          </mxGeometry>
        </mxCell>
        <mxCell id="5C-Kek0EPDYLzvU-S9g6-30" style="edgeStyle=orthogonalEdgeStyle;rounded=0;orthogonalLoop=1;jettySize=auto;html=1;entryX=1;entryY=0.5;entryDx=0;entryDy=0;entryPerimeter=0;exitX=0.5;exitY=1;exitDx=0;exitDy=0;exitPerimeter=0;" edge="1" parent="1" source="5C-Kek0EPDYLzvU-S9g6-16" target="5C-Kek0EPDYLzvU-S9g6-2">
          <mxGeometry relative="1" as="geometry">
            <mxPoint x="940" y="460" as="sourcePoint" />
            <Array as="points">
              <mxPoint x="935" y="490" />
            </Array>
          </mxGeometry>
        </mxCell>
        <mxCell id="5C-Kek0EPDYLzvU-S9g6-35" style="edgeStyle=orthogonalEdgeStyle;rounded=0;orthogonalLoop=1;jettySize=auto;html=1;exitX=1;exitY=0.25;exitDx=0;exitDy=0;exitPerimeter=0;entryX=0;entryY=0.5;entryDx=0;entryDy=0;entryPerimeter=0;strokeColor=#002aff;" edge="1" parent="1" source="5C-Kek0EPDYLzvU-S9g6-16" target="psEK_-1R5tJC7iqlsom0-21">
          <mxGeometry relative="1" as="geometry" />
        </mxCell>
        <mxCell id="5C-Kek0EPDYLzvU-S9g6-36" style="edgeStyle=orthogonalEdgeStyle;rounded=0;orthogonalLoop=1;jettySize=auto;html=1;exitX=1;exitY=0.5;exitDx=0;exitDy=0;exitPerimeter=0;entryX=0;entryY=0.5;entryDx=0;entryDy=0;entryPerimeter=0;strokeColor=#002aff;" edge="1" parent="1" source="5C-Kek0EPDYLzvU-S9g6-16" target="5C-Kek0EPDYLzvU-S9g6-33">
          <mxGeometry relative="1" as="geometry">
            <Array as="points">
              <mxPoint x="1022" y="428" />
              <mxPoint x="1060" y="428" />
              <mxPoint x="1060" y="419" />
            </Array>
          </mxGeometry>
        </mxCell>
        <mxCell id="5C-Kek0EPDYLzvU-S9g6-37" style="edgeStyle=orthogonalEdgeStyle;rounded=0;orthogonalLoop=1;jettySize=auto;html=1;exitX=1;exitY=0.75;exitDx=0;exitDy=0;exitPerimeter=0;entryX=0;entryY=0.5;entryDx=0;entryDy=0;entryPerimeter=0;strokeColor=#002aff;" edge="1" parent="1" source="5C-Kek0EPDYLzvU-S9g6-16" target="5C-Kek0EPDYLzvU-S9g6-34">
          <mxGeometry relative="1" as="geometry" />
        </mxCell>
        <mxCell id="5C-Kek0EPDYLzvU-S9g6-39" style="edgeStyle=orthogonalEdgeStyle;rounded=0;orthogonalLoop=1;jettySize=auto;html=1;entryX=0.875;entryY=0.5;entryDx=0;entryDy=0;entryPerimeter=0;" edge="1" parent="1" source="odi_V6lT9OdnU7UhY-RL-25" target="5C-Kek0EPDYLzvU-S9g6-25">
          <mxGeometry relative="1" as="geometry" />
        </mxCell>
        <mxCell id="5C-Kek0EPDYLzvU-S9g6-40" value="" style="endArrow=classic;html=1;rounded=0;" edge="1" parent="1" target="odi_V6lT9OdnU7UhY-RL-26">
          <mxGeometry width="50" height="50" relative="1" as="geometry">
            <mxPoint x="180" y="360" as="sourcePoint" />
            <mxPoint x="170" y="330" as="targetPoint" />
          </mxGeometry>
        </mxCell>
        <mxCell id="5C-Kek0EPDYLzvU-S9g6-41" value="Incoming HTTP call when home&lt;br&gt;security system disarmed" style="edgeLabel;html=1;align=center;verticalAlign=middle;resizable=0;points=[];" vertex="1" connectable="0" parent="5C-Kek0EPDYLzvU-S9g6-40">
          <mxGeometry x="-0.732" y="2" relative="1" as="geometry">
            <mxPoint x="-21" y="-13" as="offset" />
          </mxGeometry>
        </mxCell>
      </root>
    </mxGraphModel>
  </diagram>
</mxfile>
